<?xml version="1.0" standalone="no"?>
<!DOCTYPE svg PUBLIC "-//W3C//DTD SVG 20010904//EN"
 "http://www.w3.org/TR/2001/REC-SVG-20010904/DTD/svg10.dtd">
<svg version="1.0" xmlns="http://www.w3.org/2000/svg"
 width="540.000000pt" height="540.000000pt" viewBox="0 0 540.000000 540.000000"
 preserveAspectRatio="xMidYMid meet">

<g transform="translate(0.000000,540.000000) scale(0.100000,-0.100000)"
fill="#000000" stroke="none">
<path d="M0 2700 l0 -2700 2700 0 2700 0 0 2700 0 2700 -2700 0 -2700 0 0
-2700z m1318 238 l-3 -103 -180 -5 -180 -5 0 -55 0 -55 152 -3 152 -3 6 -32
c3 -17 4 -59 3 -92 l-3 -60 -155 -5 -155 -5 -3 -44 c-2 -25 -1 -55 3 -68 l6
-24 162 1 c89 0 172 1 185 0 21 0 22 -3 22 -100 l0 -100 -305 0 -305 0 0 430
0 430 300 0 301 0 -3 -102z m577 91 c55 -15 115 -44 149 -74 29 -25 76 -84 76
-95 0 -6 -164 -130 -173 -130 -3 0 -14 15 -25 33 -24 41 -76 67 -135 67 -88 0
-153 -75 -164 -192 -14 -158 79 -277 201 -254 40 8 92 47 101 76 4 11 10 20
15 20 4 0 39 -18 76 -41 125 -75 116 -66 100 -97 -36 -69 -125 -131 -226 -157
-139 -37 -278 3 -377 108 -170 180 -177 446 -16 618 54 58 98 87 168 110 57
20 171 24 230 8z m955 -82 l0 -92 -48 -60 c-200 -248 -312 -392 -312 -403 0
-10 14 -13 53 -12 28 2 112 2 185 1 l132 -1 0 -100 0 -100 -340 0 -340 0 0 88
0 88 126 149 c69 83 156 185 192 228 37 43 69 83 70 88 2 5 -73 9 -181 9
l-186 0 -3 95 c-2 53 -1 100 0 105 2 6 126 10 328 10 l324 0 0 -93z m358 -339
l2 -428 -120 0 -120 0 0 423 c0 233 3 427 7 431 4 3 57 5 117 4 l111 -3 3
-427z m817 327 l0 -100 -122 -3 -123 -3 0 -324 0 -325 -120 0 -120 0 0 325 0
324 -121 3 -121 3 1 98 c0 53 0 99 1 102 0 3 163 4 363 3 l362 -3 0 -100z
m683 3 l-3 -103 -177 -3 -178 -2 0 -60 0 -60 155 0 155 0 0 -95 0 -95 -155 0
-156 0 3 -67 3 -68 183 -3 182 -2 0 -100 0 -100 -305 0 -305 0 0 423 c0 233 3
427 7 430 3 4 138 7 300 7 l294 0 -3 -102z"/>
</g>
</svg>
